<?xml version="1.0" standalone="no"?>
<!DOCTYPE svg PUBLIC "-//W3C//DTD SVG 20010904//EN"
 "http://www.w3.org/TR/2001/REC-SVG-20010904/DTD/svg10.dtd">
<svg version="1.0" xmlns="http://www.w3.org/2000/svg"
 viewBox="0 0 2600.000000 2600.000000"
 preserveAspectRatio="xMidYMid meet">
<metadata>
Created by potrace 1.15, written by Peter Selinger 2001-2017
</metadata>
<g transform="translate(0.000000,2600.000000) scale(0.100000,-0.100000)"
fill="#000000" stroke="none">
<path d="M19510 19760 c-123 -26 -337 -108 -523 -201 -200 -101 -508 -290
-559 -345 -14 -16 -45 -75 -67 -132 -82 -209 -146 -292 -305 -396 -128 -84
-168 -128 -205 -230 -34 -96 -54 -193 -77 -386 -28 -239 -49 -311 -162 -560
-85 -189 -112 -268 -112 -332 0 -106 71 -179 305 -314 85 -49 178 -104 207
-121 l53 -33 -190 0 c-419 -1 -807 -47 -1295 -156 -272 -61 -478 -121 -657
-191 -182 -71 -225 -74 -377 -25 -142 47 -271 59 -409 39 -184 -28 -431 -124
-597 -232 -109 -72 -220 -186 -258 -266 -48 -100 -60 -188 -39 -284 17 -74 16
-78 -2 -119 -12 -28 -32 -51 -57 -67 -22 -13 -46 -32 -54 -42 -14 -17 -202
-18 -5092 -17 -5694 0 -5154 8 -5327 -76 -160 -78 -274 -209 -338 -386 -26
-72 -27 -78 -31 -380 -4 -344 3 -400 68 -532 46 -93 161 -222 236 -264 15 -8
1454 -6363 1454 -6421 0 -21 9 -72 20 -115 50 -197 199 -371 386 -449 120 -51
182 -57 583 -57 l369 0 16 -47 c54 -163 57 -200 66 -718 10 -560 18 -664 58
-745 50 -100 179 -161 347 -162 232 -3 409 139 436 349 4 37 8 253 9 479 0
385 1 415 21 494 27 104 73 217 122 293 l37 57 5083 0 5083 0 27 -43 c44 -66
94 -178 124 -274 l27 -88 6 -480 c4 -321 10 -491 18 -513 64 -187 264 -298
487 -271 141 18 242 74 285 160 34 66 41 161 50 684 9 532 11 563 60 742 l22
82 496 3 497 4 80 28 c108 37 174 77 252 150 128 119 193 251 213 430 8 70
1080 6128 1121 6331 8 44 15 53 46 70 101 54 217 172 273 277 69 129 73 153
77 472 3 191 1 311 -7 355 -36 206 -172 392 -355 482 -155 77 -102 72 -960 79
l-769 5 -32 213 c-37 251 -54 322 -98 416 -45 98 -110 179 -219 277 -50 46
-94 84 -96 86 -2 1 15 32 38 67 47 72 71 138 72 200 0 23 12 74 27 115 29 80
28 79 162 140 42 19 111 68 190 134 69 57 197 151 285 207 224 144 296 199
405 309 148 148 264 316 312 451 19 55 23 85 23 195 0 140 -12 201 -53 272
-33 58 -37 132 -18 283 14 110 14 133 2 191 -20 93 -66 177 -138 254 -71 77
-132 121 -309 228 -70 42 -181 112 -249 156 -275 180 -451 242 -600 211z"/>
</g>
</svg>
