<?xml version="1.0" standalone="no"?>
<!DOCTYPE svg PUBLIC "-//W3C//DTD SVG 20010904//EN"
 "http://www.w3.org/TR/2001/REC-SVG-20010904/DTD/svg10.dtd">
<svg version="1.0" xmlns="http://www.w3.org/2000/svg"
 viewBox="0 0 2600.000000 2604.000000"
 preserveAspectRatio="xMidYMid meet">
<metadata>
Created by potrace 1.13, written by Peter Selinger 2001-2015
</metadata>
<g transform="translate(0.000000,2604.000000) scale(0.100000,-0.100000)"
fill="#000000" stroke="none">
<path d="M16370 23414 c-547 -29 -863 -62 -1251 -129 -1666 -291 -3222 -1045
-4405 -2132 -435 -400 -701 -806 -888 -1350 -158 -462 -224 -895 -233 -1534
-7 -484 8 -774 77 -1431 32 -297 32 -361 0 -493 -5 -22 -10 -43 -10 -47 0 -10
172 61 214 89 l40 26 50 -54 c58 -63 139 -185 189 -284 57 -114 119 -283 217
-585 119 -366 180 -512 407 -970 284 -574 305 -626 448 -1109 232 -788 392
-1143 620 -1376 122 -126 248 -190 398 -204 l72 -6 7 -50 c24 -174 90 -777
113 -1041 l6 -71 -78 17 c-111 24 -151 38 -205 72 -41 26 -50 28 -66 16 -57
-40 -119 -148 -157 -271 -50 -169 -69 -339 -85 -763 -22 -616 -41 -726 -165
-974 -133 -264 -279 -447 -743 -930 -271 -281 -393 -419 -516 -585 -831 -1112
-1525 -2652 -1801 -3994 -60 -296 -111 -612 -190 -1188 -7 -48 -23 -39 150
-82 273 -67 638 -116 1050 -140 240 -14 445 -20 1055 -31 591 -11 767 -19
1195 -55 743 -62 1215 -59 2595 20 915 52 964 54 1550 65 752 13 830 15 1875
65 546 26 1125 36 1450 25 263 -8 334 -14 575 -49 364 -52 503 -65 630 -57
172 10 269 45 340 122 106 115 113 265 24 569 -80 278 -177 518 -323 800 -204
396 -359 630 -1032 1560 -400 552 -614 894 -764 1225 -142 309 -197 504 -255
907 -43 298 -69 413 -126 551 -45 111 -73 159 -206 364 -111 171 -176 294
-201 384 l-15 50 67 -8 c277 -37 570 -143 791 -289 116 -76 286 -244 355 -349
79 -121 140 -266 170 -403 5 -26 8 -23 43 45 43 84 166 215 249 266 l52 31 20
-25 c11 -14 30 -51 43 -82 19 -50 22 -75 23 -202 0 -163 -16 -233 -82 -365
l-35 -70 42 40 c23 22 96 104 161 182 66 78 143 162 171 187 58 51 161 109
184 104 9 -2 25 -33 40 -76 93 -278 291 -504 465 -531 27 -5 49 -5 49 -2 0 3
-10 31 -22 61 -16 41 -22 85 -26 175 l-5 119 34 -25 c19 -14 49 -36 67 -50 18
-13 46 -43 62 -66 29 -44 40 -41 40 10 0 38 46 121 85 156 42 37 84 57 129 63
27 3 31 -2 99 -134 65 -124 72 -143 75 -207 2 -39 -1 -85 -7 -102 -6 -18 -10
-34 -8 -35 4 -4 82 138 227 411 67 127 124 232 126 234 8 8 75 -62 119 -124
65 -92 103 -176 130 -290 l8 -30 14 35 c92 224 199 463 210 467 7 3 24 -2 37
-11 25 -16 25 -16 57 54 46 99 50 101 97 38 82 -109 99 -164 132 -428 20 -157
35 -240 45 -240 12 0 70 134 114 262 27 79 57 162 66 186 l18 43 36 -34 c40
-38 210 -161 216 -155 12 12 37 137 42 210 12 167 -20 290 -162 623 -104 244
-143 366 -152 470 l-5 70 86 -85 c48 -47 104 -107 124 -135 l37 -50 3 34 c5
47 -23 173 -57 263 -17 43 -71 157 -120 255 -135 267 -172 383 -170 535 1 109
4 113 61 78 27 -17 51 -30 54 -30 14 0 -6 365 -29 560 -14 113 -29 250 -32
304 l-7 100 36 -32 c20 -18 40 -32 43 -32 9 0 -5 478 -18 590 -24 217 -75 400
-159 575 -61 126 -107 186 -315 410 -170 184 -261 305 -288 385 -14 41 -14 46
0 55 68 44 100 96 110 174 5 42 -10 127 -33 185 -6 17 -3 18 47 11 30 -4 65
-12 78 -17 22 -8 33 -1 101 67 41 41 79 75 82 75 4 0 8 -33 10 -72 l3 -73 41
60 c122 178 194 400 194 598 0 105 -14 176 -45 237 -10 19 -84 103 -165 186
-165 167 -183 198 -160 269 16 48 81 114 140 142 50 23 160 43 242 43 74 0
161 23 208 54 80 52 135 199 134 356 -1 151 -47 277 -181 501 -47 79 -108 182
-136 229 -66 112 -155 231 -313 420 -228 273 -285 353 -362 505 -77 155 -108
315 -91 477 11 106 17 134 80 368 62 234 79 330 79 451 0 120 -19 234 -65 381
-19 62 -49 165 -67 228 l-32 115 -7 415 c-4 228 -11 571 -15 761 -5 257 -3
376 6 465 8 65 13 136 11 158 -3 67 33 119 208 301 91 94 181 197 200 229 62
105 87 246 59 340 -19 61 -81 114 -217 186 -175 92 -203 121 -371 381 -305
473 -471 672 -720 866 -128 100 -289 189 -552 307 -842 376 -1805 595 -2978
676 -150 11 -978 21 -1110 14z m4330 -1381 c-25 -26 -221 -226 -435 -443 -487
-493 -632 -659 -810 -930 -138 -209 -231 -388 -341 -656 -188 -461 -295 -955
-352 -1633 l-17 -204 -37 55 c-124 188 -205 423 -239 691 -15 125 -6 454 16
591 51 323 146 616 305 941 419 860 1130 1495 1815 1620 39 7 86 14 105 14
l34 1 -44 -47z m1175 -1271 c-93 -92 -294 -282 -445 -421 -338 -312 -686 -655
-833 -821 -391 -444 -604 -830 -691 -1250 -30 -147 -39 -269 -33 -444 9 -248
49 -443 142 -700 25 -71 44 -130 42 -132 -8 -9 -99 61 -147 112 -160 176 -235
448 -234 849 2 526 149 1120 359 1447 135 209 278 383 489 593 308 308 608
525 987 715 188 95 483 218 524 219 6 0 -66 -75 -160 -167z m-9509 -10233
c242 -93 621 -218 1384 -460 1120 -355 1687 -548 2140 -729 765 -305 1097
-514 1682 -1058 216 -200 243 -239 255 -367 7 -82 -5 -112 -66 -157 -55 -42
-73 -75 -112 -210 -64 -222 -78 -518 -39 -823 22 -174 27 -205 100 -585 27
-140 52 -277 55 -305 l7 -50 -37 60 c-197 321 -860 889 -1450 1242 -382 228
-685 374 -1485 713 -1199 508 -1956 810 -2675 1068 l-160 57 -3 165 c-10 524
70 1204 164 1393 20 39 63 97 80 106 1 1 73 -26 160 -60z"/>
</g>
</svg>
