<?xml version="1.0" standalone="no"?>
<!DOCTYPE svg PUBLIC "-//W3C//DTD SVG 20010904//EN"
 "http://www.w3.org/TR/2001/REC-SVG-20010904/DTD/svg10.dtd">
<svg version="1.0" xmlns="http://www.w3.org/2000/svg"
 viewBox="0 0 2600.000000 2600.000000"
 preserveAspectRatio="xMidYMid meet">
<metadata>
Created by potrace 1.15, written by Peter Selinger 2001-2017
</metadata>
<g transform="translate(0.000000,2600.000000) scale(0.100000,-0.100000)"
fill="#000000" stroke="none">
<path d="M7510 22681 c-30 -9 -66 -23 -80 -31 -50 -27 -2617 -1764 -2677
-1812 -89 -70 -226 -219 -288 -313 -104 -157 -181 -343 -222 -535 -25 -120
-25 -420 0 -540 28 -131 83 -284 141 -395 44 -86 5628 -8367 5675 -8417 15
-16 22 -16 106 -3 621 102 1283 -129 1698 -593 65 -72 148 -177 165 -209 9
-15 75 2 1082 268 913 242 1016 270 1039 280 27 11 941 627 1042 702 152 112
221 282 185 455 -20 98 -67 181 -137 246 -136 126 -319 158 -486 86 -29 -12
-627 -410 -1330 -885 l-1277 -863 -26 36 c-71 104 -678 1007 -677 1008 1 1
571 385 1267 855 707 477 1290 877 1321 906 185 175 186 466 2 646 -64 63 -95
82 -173 109 -91 31 -211 30 -300 -3 -48 -18 -399 -250 -1345 -889 -704 -476
-1281 -865 -1284 -865 -11 0 -702 1038 -694 1045 4 4 583 395 1286 870 899
607 1290 876 1319 909 51 58 94 149 108 235 24 134 -27 285 -131 389 -135 134
-336 171 -507 92 -27 -13 -618 -407 -1313 -877 -694 -469 -1267 -856 -1274
-860 -11 -7 -709 1016 -703 1032 2 5 581 400 1288 877 1215 821 1287 871 1331
930 60 79 90 158 96 253 19 287 -231 519 -517 479 -35 -5 -87 -20 -116 -33
-28 -13 -622 -409 -1320 -881 -698 -472 -1273 -859 -1279 -861 -8 -3 -694
1006 -702 1032 -1 5 567 394 1264 864 696 470 1283 871 1306 890 100 86 152
217 145 368 -4 79 -9 100 -40 164 -48 95 -121 169 -216 216 -64 31 -85 36
-163 40 -97 5 -158 -6 -230 -42 -25 -13 -616 -409 -1313 -880 -698 -471 -1271
-854 -1274 -851 -4 3 -162 236 -353 518 -323 475 -346 513 -331 528 9 9 580
395 1267 859 688 464 1265 856 1283 870 18 15 51 51 72 79 133 176 113 429
-44 587 -131 131 -339 171 -498 97 -35 -16 -633 -415 -1331 -886 -697 -472
-1271 -857 -1275 -857 -10 0 -697 1017 -697 1032 0 7 571 398 1269 870 699
472 1292 879 1319 905 29 29 63 78 85 123 36 74 37 77 37 195 0 114 -2 123
-32 188 -36 76 -116 166 -181 204 -105 62 -252 80 -362 44z"/>
<path d="M18655 16203 c-113 -147 -236 -313 -274 -368 -447 -656 -1079 -1997
-1841 -3905 -166 -416 -483 -1234 -583 -1505 l-44 -120 -504 -138 c-1171 -320
-3647 -974 -3653 -965 -1 2 -11 26 -21 53 -33 92 -114 239 -179 325 -202 269
-493 454 -819 521 -450 92 -916 -48 -1237 -372 -229 -232 -340 -468 -395 -842
-7 -44 -16 -49 -145 -78 -357 -79 -936 -24 -1106 106 -34 26 -36 26 -50 9 -51
-65 -213 -369 -202 -379 2 -2 362 -73 801 -157 l798 -153 48 -91 c65 -123 109
-188 196 -287 142 -163 329 -292 542 -373 197 -75 466 -102 678 -70 529 82
959 459 1106 968 16 56 30 102 32 103 1 1 533 153 1183 339 l1181 336 484
-104 c266 -57 588 -128 716 -157 l231 -52 135 -196 c152 -222 291 -440 332
-521 l28 -55 -7 -210 c-15 -509 -113 -1668 -196 -2320 -16 -131 -30 -244 -30
-250 0 -7 -36 -16 -93 -23 -656 -81 -1186 -594 -1293 -1250 -20 -124 -19 -348
2 -471 35 -206 130 -434 250 -602 64 -89 211 -238 298 -303 517 -385 1227
-380 1756 13 103 76 252 229 328 337 113 157 203 368 248 574 27 121 27 449 0
569 -109 502 -446 893 -913 1061 -36 13 -63 29 -63 36 0 50 185 1116 300 1724
81 429 308 1562 408 2034 l67 319 620 287 c2163 999 3721 1770 4427 2191 294
176 348 218 608 476 168 167 236 240 215 232 -16 -6 -178 -67 -360 -136 -1094
-416 -2412 -832 -4685 -1482 -571 -163 -512 -149 -505 -120 3 13 57 251 121
529 375 1638 799 3371 1159 4734 63 241 114 441 111 443 -2 3 -97 -116 -211
-264z m-2235 -6244 c60 -15 131 -78 167 -148 28 -54 33 -73 33 -135 0 -163
-113 -283 -275 -294 -91 -5 -164 21 -224 80 -62 62 -84 109 -89 199 -4 66 -1
84 20 130 71 153 198 212 368 168z m-5739 -358 c213 -55 417 -209 526 -396 38
-66 78 -164 100 -245 25 -96 23 -309 -5 -413 -80 -294 -303 -523 -597 -613
-81 -25 -105 -28 -240 -28 -126 -1 -162 3 -228 22 -297 85 -524 312 -609 609
-30 104 -32 342 -4 443 92 332 351 571 689 636 95 18 269 11 368 -15z m5434
-4836 c141 -6 346 -107 483 -239 116 -111 198 -246 248 -412 25 -80 27 -105
28 -249 1 -127 -3 -176 -18 -235 -102 -399 -416 -691 -816 -756 -451 -74 -884
182 -1031 609 -36 106 -49 187 -49 315 0 456 322 857 773 963 68 16 103 18
207 12 69 -3 148 -7 175 -8z"/>
<path d="M13829 8512 c-312 -90 -342 -100 -400 -141 l-62 -44 -17 21 -17 20
-539 -154 c-296 -84 -547 -157 -556 -161 -9 -5 -44 -62 -77 -128 -33 -66 -70
-136 -82 -156 l-21 -36 45 -42 c97 -90 217 -169 348 -230 410 -192 877 -183
1274 23 55 28 390 247 743 486 507 342 640 436 625 442 -26 11 -890 198 -911
197 -9 0 -168 -44 -353 -97z"/>
</g>
</svg>
